Coordinates
version=1
nRows=33
nColumns=38
inDegrees=no

Units are S.I. units (second, meters, Newtons, ...)
If the header above contains a line with 'inDegrees', this indicates whether rotational values are in degrees (yes) or radians (no).

endheader
time	pelvis_tilt	pelvis_list	pelvis_rotation	pelvis_tx	pelvis_ty	pelvis_tz	hip_flexion_r	hip_adduction_r	hip_rotation_r	knee_angle_r	ankle_angle_r	subtalar_angle_r	mtp_angle_r	hip_flexion_l	hip_adduction_l	hip_rotation_l	knee_angle_l	ankle_angle_l	subtalar_angle_l	mtp_angle_l	lumbar_extension	lumbar_bending	lumbar_rotation	arm_flex_r	arm_add_r	arm_rot_r	elbow_flex_r	pro_sup_r	wrist_flex_r	wrist_dev_r	arm_flex_l	arm_add_l	arm_rot_l	elbow_flex_l	pro_sup_l	wrist_flex_l	wrist_dev_l
4.11	-0.0809502	-0.00552659	-0.141265	0.84309	0.971554	-0.318124	-0.261385	-0.0312893	-0.182871	-0.677483	-0.133163	0.1	-0.00304403	0.858552	-0.0887044	-0.332889	-0.53254	0.544723	0.1	-0.0055616	-0.218548	-0.0737732	0.349003	-0.101153	-0.781441	-0.159375	2.28958	1.46311	-5.66263e-06	-0.0173684	-0.866441	-0.295233	-0.332077	2.03927	2.07326	-0.00482724	-0.00281183
4.12	-0.0819032	-0.023863	-0.137617	0.845915	0.97332	-0.317647	-0.253421	-0.0189679	-0.170657	-0.771557	-0.13778	0.1	-0.00304403	0.820132	-0.0981145	-0.370507	-0.441191	0.555552	0.1	-0.0055616	-0.214419	-0.0535684	0.345326	-0.141072	-0.783052	-0.189648	2.29884	1.46941	-5.66263e-06	-0.0173684	-0.866773	-0.288738	-0.344172	2.0517	2.06051	-0.00482724	-0.00281183
4.13	-0.0803806	-0.0408323	-0.132946	0.848435	0.974353	-0.317432	-0.237413	-0.00925945	-0.160581	-0.885094	-0.134946	0.1	-0.00304403	0.780943	-0.105061	-0.404164	-0.370948	0.558231	0.1	-0.0055616	-0.214073	-0.034453	0.337389	-0.184932	-0.781937	-0.218555	2.30219	1.47608	-5.66263e-06	-0.0173684	-0.861554	-0.284369	-0.355075	2.06134	2.04896	-0.00482724	-0.00281183
4.14	-0.0759658	-0.0550283	-0.127272	0.850625	0.974649	-0.317522	-0.215161	-0.00394646	-0.153713	-1.0138	-0.129359	0.1	-0.00304403	0.741318	-0.108698	-0.431565	-0.322861	0.551588	0.1	-0.0055616	-0.217612	-0.0180427	0.325077	-0.231679	-0.778122	-0.244991	2.29898	1.48356	-5.66263e-06	-0.0173684	-0.851186	-0.282952	-0.364215	2.06773	2.03877	-0.00482724	-0.00281183
4.15	-0.0688533	-0.0652391	-0.12053	0.852462	0.974152	-0.317929	-0.187875	-0.00441028	-0.150524	-1.15303	-0.123991	0.1	-0.00304403	0.702172	-0.108206	-0.450602	-0.297094	0.535301	0.1	-0.0055616	-0.224445	-0.00567496	0.308311	-0.280226	-0.771645	-0.268113	2.28851	1.49277	-5.66263e-06	-0.0173684	-0.836199	-0.285244	-0.371105	2.07044	2.02996	-0.00482724	-0.00281183
4.16	-0.0598355	-0.0705502	-0.112591	0.853908	0.972763	-0.318645	-0.155908	-0.0115072	-0.150844	-1.29824	-0.119834	0.1	-0.00304403	0.665034	-0.102828	-0.459585	-0.293011	0.510222	0.1	-0.0055616	-0.233404	0.00172434	0.287051	-0.329435	-0.762577	-0.287369	2.26999	1.50472	-5.66263e-06	-0.0173684	-0.817097	-0.291812	-0.375367	2.06899	2.02245	-0.00482724	-0.00281183
4.17	-0.0501533	-0.0704369	-0.103298	0.854915	0.970388	-0.319646	-0.118716	-0.0254789	-0.153916	-1.44535	-0.116265	0.1	-0.00304403	0.631778	-0.0919734	-0.457696	-0.309224	0.478607	0.1	-0.0055616	-0.243014	0.00371556	0.261344	-0.378123	-0.751027	-0.302497	2.2427	1.52009	-5.66263e-06	-0.0173684	-0.794188	-0.302951	-0.376706	2.06284	2.016	-0.00482724	-0.00281183
4.18	-0.0412208	-0.0648269	-0.0925193	0.855424	0.966949	-0.320896	-0.0750755	-0.0458917	-0.158517	-1.59077	-0.111749	0.1	-0.00304403	0.604207	-0.0753627	-0.445079	-0.343724	0.444395	0.1	-0.0055616	-0.251861	0.000369621	0.231396	-0.425111	-0.737141	-0.313498	2.20599	1.53887	-5.66263e-06	-0.0173684	-0.767447	-0.318651	-0.374862	2.0515	2.01028	-0.00482724	-0.00281183
4.19	-0.0343078	-0.0541373	-0.0801919	0.855387	0.962495	-0.322345	-0.0234671	-0.0716314	-0.163171	-1.73138	-0.10452	0.1	-0.00304403	0.583553	-0.0532025	-0.422819	-0.393997	0.413239	0.1	-0.0055616	-0.25893	-0.00775587	0.197652	-0.469315	-0.72108	-0.320591	2.15949	1.56005	-5.66263e-06	-0.0173684	-0.736463	-0.338608	-0.369583	2.03458	2.00494	-0.00482724	-0.00281183
4.2	-0.0302519	-0.0392876	-0.0663711	0.85477	0.957348	-0.323914	0.0374261	-0.100931	-0.166404	-1.86433	-0.0931235	0.1	-0.00304403	0.569984	-0.0263413	-0.392855	-0.456989	0.391878	0.1	-0.0055616	-0.263836	-0.0196604	0.160864	-0.509863	-0.703002	-0.324144	2.10324	1.58166	-5.66263e-06	-0.0173684	-0.700513	-0.362275	-0.36062	2.01201	1.99974	-0.00482724	-0.00281183
4.21	-0.0292433	-0.0216619	-0.051262	0.853528	0.95213	-0.325489	0.108245	-0.13147	-0.167032	-1.98685	-0.0766946	0.1	-0.00304403	0.562272	0.00367152	-0.357722	-0.528885	0.386662	0.1	-0.0055616	-0.266876	-0.0339389	0.122104	-0.546218	-0.683081	-0.324604	2.03784	1.60091	-5.66263e-06	-0.0173684	-0.658746	-0.388905	-0.347771	1.98423	1.99452	-0.00482724	-0.00281183
4.22	-0.030871	-0.00304679	-0.035236	0.851608	0.947437	-0.326924	0.188605	-0.160576	-0.164423	-2.09614	-0.0550297	0.1	-0.00304403	0.557765	0.034667	-0.320115	-0.604947	0.40167	0.1	-0.0055616	-0.268914	-0.0488426	0.0827225	-0.578279	-0.66155	-0.322436	1.96462	1.61469	-5.66263e-06	-0.0173684	-0.610451	-0.417593	-0.330942	1.95235	1.98938	-0.00482724	-0.00281183
4.23	-0.0342389	0.0144999	-0.0188245	0.84904	0.943512	-0.328115	0.277022	-0.1855	-0.15867	-2.18939	-0.0285569	0.1	-0.00304403	0.552845	0.0639623	-0.28274	-0.679836	0.437526	0.1	-0.0055616	-0.271064	-0.0623772	0.044242	-0.606427	-0.638772	-0.318102	1.88569	1.62019	-5.66263e-06	-0.0173684	-0.555324	-0.447294	-0.310225	1.91816	1.98462	-0.00482724	-0.00281183
4.24	-0.0382515	0.0288732	-0.00265916	0.845979	0.94035	-0.329059	0.371108	-0.203773	-0.15061	-2.26396	0.00172601	0.1	-0.00304403	0.543758	0.0885955	-0.248139	-0.748346	0.491431	0.1	-0.0055616	-0.274287	-0.072473	0.00816864	-0.631473	-0.615269	-0.312085	1.80385	1.61568	-5.66263e-06	-0.0173684	-0.493665	-0.476851	-0.285963	1.88408	1.98075	-0.00482724	-0.00281183
4.25	-0.041973	0.0382164	0.0126537	0.84264	0.937956	-0.329756	0.467972	-0.213615	-0.141708	-2.31762	0.0344091	0.1	-0.00304403	0.527482	0.105765	-0.218381	-0.806186	0.558144	0.1	-0.0055616	-0.279051	-0.0772468	-0.0242515	-0.654525	-0.591687	-0.304943	1.72244	1.60117	-5.66263e-06	-0.0173684	-0.426446	-0.505055	-0.258759	1.85286	1.97837	-0.00482724	-0.00281183
4.26	-0.0448614	0.0411903	0.0266919	0.839259	0.936413	-0.330125	0.564646	-0.2143	-0.133775	-2.34882	0.067832	0.1	-0.00304403	0.502291	0.113377	-0.194784	-0.850412	0.63115	0.1	-0.0055616	-0.285151	-0.0753186	-0.0522829	-0.676785	-0.568694	-0.297336	1.64498	1.57866	-5.66263e-06	-0.0173684	-0.35523	-0.530744	-0.229419	1.8272	1.97789	-0.00482724	-0.00281183
4.27	-0.0468596	0.0372331	0.0393538	0.836082	0.935829	-0.330163	0.658397	-0.206351	-0.128606	-2.35681	0.100328	0.1	-0.00304403	0.467852	0.11049	-0.177734	-0.879461	0.703533	0.1	-0.0055616	-0.291794	-0.0660459	-0.0758506	-0.699356	-0.54684	-0.290012	1.57484	1.55181	-5.66263e-06	-0.0173684	-0.281966	-0.552941	-0.198815	1.80935	1.97922	-0.00482724	-0.00281183
4.28	-0.0482827	0.0266792	0.0508915	0.833345	0.936276	-0.330019	0.746857	-0.191469	-0.127623	-2.34169	0.130537	0.1	-0.00304403	0.424952	0.0975015	-0.166715	-0.892896	0.768469	0.1	-0.0055616	-0.297851	-0.0496071	-0.0955193	-0.723103	-0.526436	-0.283722	1.51486	1.52492	-5.66263e-06	-0.0173684	-0.208715	-0.570975	-0.167703	1.80085	1.98151	-0.00482724	-0.00281183
4.29	-0.0496385	0.0105972	0.0618006	0.831214	0.937763	-0.329854	0.828033	-0.172166	-0.131617	-2.30432	0.157667	0.1	-0.00304403	0.375032	0.0759552	-0.16068	-0.891128	0.819594	0.1	-0.0055616	-0.302182	-0.0269526	-0.112286	-0.748592	-0.507494	-0.279112	1.46714	1.50169	-5.66263e-06	-0.0173684	-0.137398	-0.584555	-0.13659	1.80235	1.98319	-0.00482724	-0.00281183
4.3	-0.0514271	-0.00947152	0.0726115	0.82978	0.94025	-0.329748	0.900298	-0.151177	-0.140647	-2.24611	0.18158	0.1	-0.00304403	0.319775	0.0481453	-0.158436	-0.875159	0.851267	0.1	-0.0055616	-0.303878	0.000398778	-0.127255	-0.776072	-0.489745	-0.276621	1.43285	1.48428	-5.66263e-06	-0.0173684	-0.0696301	-0.593763	-0.105719	1.81365	1.98236	-0.00482724	-0.00281183
4.31	-0.0540641	-0.0318008	0.0836574	0.829061	0.943662	-0.329746	0.96239	-0.130861	-0.154106	-2.1688	0.202697	0.1	-0.00304403	0.260813	0.0166366	-0.159007	-0.846424	0.858859	0.1	-0.0055616	-0.302403	0.0306244	-0.141318	-0.805485	-0.472737	-0.276442	1.41222	1.47302	-5.66263e-06	-0.0173684	-0.00668234	-0.598968	-0.0751705	1.83397	1.97734	-0.00482724	-0.00281183
4.32	-0.0577901	-0.0547061	0.0949155	0.829025	0.947891	-0.329877	1.01342	-0.112798	-0.170917	-2.07423	0.221794	0.1	-0.00304403	0.199591	-0.0162087	-0.162037	-0.806731	0.839223	0.1	-0.0055616	-0.297602	0.0618442	-0.154949	-0.836489	-0.45597	-0.278524	1.40458	1.46672	-5.66263e-06	-0.0173684	0.0504783	-0.600732	-0.0450413	1.86209	1.96731	-0.00482724	-0.00281183
4.33	-0.0626661	-0.0767065	0.105987	0.829607	0.95281	-0.330129	1.05286	-0.0976804	-0.189807	-1.96428	0.239812	0.1	-0.00304403	0.137322	-0.0484614	-0.16785	-0.758253	0.791091	0.1	-0.0055616	-0.28969	0.092277	-0.168181	-0.868493	-0.439034	-0.282626	1.40854	1.46344	-5.66263e-06	-0.0173684	0.101123	-0.599707	-0.0155643	1.89664	1.95267	-0.00482724	-0.00281183
4.34	-0.0685696	-0.0965663	0.116228	0.830735	0.958271	-0.330464	1.08048	-0.0854896	-0.209591	-1.84077	0.257719	0.1	-0.00304403	0.0750452	-0.0786455	-0.177138	-0.703579	0.715398	0.1	-0.0055616	-0.279199	0.120341	-0.180719	-0.900719	-0.42169	-0.288384	1.4222	1.46119	-5.66263e-06	-0.0173684	0.144733	-0.596572	0.0128766	1.9362	1.93489	-0.00482724	-0.00281183
4.35	-0.0752143	-0.113274	0.124977	0.832338	0.964081	-0.330838	1.09634	-0.0758366	-0.229435	-1.70564	0.27643	0.1	-0.00304403	0.0137582	-0.105634	-0.190437	-0.645836	0.615474	0.1	-0.0055616	-0.266903	0.14471	-0.192144	-0.932297	-0.403895	-0.295391	1.44342	1.45849	-5.66263e-06	-0.0173684	0.181025	-0.591989	0.0398389	1.97937	1.91614	-0.00482724	-0.00281183
4.36	-0.0822007	-0.12601	0.131804	0.834338	0.969991	-0.331207	1.10079	-0.0683274	-0.24903	-1.56113	0.296756	0.1	-0.00304403	-0.0454097	-0.128542	-0.207603	-0.588816	0.497006	0.1	-0.0055616	-0.253704	0.164349	-0.202123	-0.962362	-0.385767	-0.303256	1.47003	1.45465	-5.66263e-06	-0.0173684	0.209978	-0.586573	0.0649511	2.02474	1.89874	-0.00482724	-0.00281183
4.37	-0.0890927	-0.134133	0.136667	0.836642	0.975695	-0.331555	1.0945	-0.0628367	-0.268665	-1.40998	0.319332	0.1	-0.00304403	-0.101068	-0.146643	-0.22742	-0.53697	0.367589	0.1	-0.0055616	-0.240494	0.178536	-0.210547	-0.990133	-0.367532	-0.311633	1.50007	1.44974	-5.66263e-06	-0.0173684	0.231829	-0.580865	0.0880027	2.07084	1.8846	-0.00482724	-0.00281183
4.38	-0.0954965	-0.1372	0.139937	0.839144	0.980902	-0.331913	1.07849	-0.0596039	-0.289156	-1.25559	0.344509	0.1	-0.00304403	-0.151556	-0.159331	-0.247428	-0.495172	0.235884	0.1	-0.0055616	-0.228045	0.186869	-0.217569	-1.01495	-0.349481	-0.320203	1.53183	1.44442	-5.66263e-06	-0.0173684	0.247016	-0.575319	0.108955	2.11614	1.87494	-0.00482724	-0.00281183
4.39	-0.101116	-0.135026	0.142271	0.84174	0.985404	-0.332341	1.05417	-0.0591266	-0.311644	-1.10206	0.372212	0.1	-0.00304403	-0.195067	-0.166215	-0.26434	-0.468323	0.110678	0.1	-0.0055616	-0.216934	0.189295	-0.223502	-1.0363	-0.331951	-0.328648	1.56393	1.43961	-5.66263e-06	-0.0173684	0.256051	-0.570296	0.127881	2.159	1.87024	-0.00482724	-0.00281183
4.4	-0.105757	-0.127773	0.144382	0.844336	0.989095	-0.3329	1.02317	-0.0619053	-0.337297	-0.95401	0.401777	0.1	-0.00304403	-0.229897	-0.167249	-0.274789	-0.460789	-0.000224939	0.1	-0.0055616	-0.207537	0.186119	-0.22865	-1.05376	-0.315333	-0.336624	1.59533	1.4362	-5.66263e-06	-0.0173684	0.259386	-0.566069	0.144874	2.19786	1.87037	-0.00482724	-0.00281183
4.41	-0.109266	-0.11603	0.146777	0.84686	0.991941	-0.333647	0.987261	-0.0681073	-0.366883	-0.816237	0.431757	0.1	-0.00304403	-0.254733	-0.16285	-0.276221	-0.47582	-0.0910667	0.1	-0.0055616	-0.20005	0.178024	-0.233112	-1.06705	-0.300101	-0.343767	1.6253	1.43477	-5.66263e-06	-0.0173684	0.257295	-0.562846	0.159979	2.23126	1.87485	-0.00482724	-0.00281183
4.42	-0.111584	-0.100816	0.149596	0.849269	0.993949	-0.334594	0.948119	-0.0772586	-0.400315	-0.693192	0.4598	0.1	-0.00304403	-0.268922	-0.153972	-0.267685	-0.515088	-0.158935	0.1	-0.0055616	-0.194581	0.166056	-0.236657	-1.07597	-0.286834	-0.349729	1.65342	1.43547	-5.66263e-06	-0.0173684	0.24982	-0.560777	0.17314	2.25799	1.88301	-0.00482724	-0.00281183
4.43	-0.112636	-0.0835335	0.152517	0.851562	0.995128	-0.335646	0.907208	-0.0881156	-0.436301	-0.588454	0.482794	0.1	-0.00304403	-0.272564	-0.142089	-0.250223	-0.578461	-0.204019	0.1	-0.0055616	-0.191144	0.151566	-0.238696	-1.08044	-0.276219	-0.354238	1.67954	1.43807	-5.66263e-06	-0.0173684	0.236791	-0.559949	0.184189	2.27719	1.89414	-0.00482724	-0.00281183
